<svg width="38" height="35" viewBox="0 0 38 35" fill="none" xmlns="http://www.w3.org/2000/svg">
<g clip-path="url(#clip0_104_248)">
<path d="M18.588 0.146987C18.588 0.146987 15.6258 2.47229 15.5951 2.50009C15.5537 2.48288 11.9717 1.30302 11.9717 1.30302C11.8208 1.2527 11.6766 1.2527 11.531 1.30831C11.3854 1.35863 11.2746 1.44868 11.1958 1.58507C11.1958 1.58507 9.2152 4.77508 9.19383 4.80818C9.14976 4.80818 5.37687 4.91544 5.37687 4.91544C5.22061 4.91544 5.08439 4.96576 4.96552 5.0664C4.84532 5.16571 4.77321 5.29019 4.74382 5.4438C4.74382 5.4438 3.98257 9.11051 3.97322 9.15157C3.93449 9.16481 0.4247 10.546 0.4247 10.546C0.276456 10.6016 0.166942 10.6916 0.0894809 10.8267C0.0293818 10.93 0 11.0319 0 11.1445C0 11.1789 0.00534214 11.2173 0.0106843 11.2557L0.665097 15.66L11.6739 19.6472C11.6739 19.6472 17.5062 21.6693 17.7119 21.7421C17.5089 21.8123 13.533 23.1603 13.533 23.1603C13.5196 23.163 13.1764 23.2596 13.0522 23.5152C13.0201 23.5761 13.0041 23.641 13.0041 23.7099C13.0041 23.7747 13.0161 23.8436 13.0469 23.9138C13.513 25.0645 14.3129 26.0471 15.36 26.7555C16.4338 27.4785 17.6932 27.8612 18.9993 27.8612C20.3055 27.8612 21.5676 27.4785 22.64 26.7555C23.6871 26.0484 24.4871 25.0658 24.9532 23.9138C24.9812 23.8436 24.9959 23.7747 24.9959 23.7099C24.9959 23.641 24.9812 23.5748 24.9491 23.5152C24.8223 23.2583 24.479 23.1616 24.463 23.155C24.463 23.155 20.4911 21.8123 20.2868 21.7421C20.4938 21.6693 26.3247 19.6472 26.3247 19.6472L37.3336 15.66L37.988 11.2557C37.9947 11.2173 37.9973 11.1789 37.9973 11.1445C37.9973 11.0319 37.968 10.9286 37.9092 10.8267C37.8317 10.6916 37.7209 10.5989 37.5726 10.5433C37.5726 10.5433 34.0628 9.16481 34.0254 9.15157C34.0148 9.11051 33.2575 5.4438 33.2575 5.4438C33.2268 5.29019 33.1547 5.16571 33.0331 5.0664C32.9183 4.96708 32.7821 4.91544 32.6245 4.91544C32.6245 4.91544 28.8502 4.8095 28.8088 4.80818C28.7848 4.77508 26.8069 1.58507 26.8069 1.58507C26.7254 1.44868 26.6159 1.35863 26.4663 1.30831C26.3221 1.25402 26.1792 1.25402 26.0296 1.30302C26.0296 1.30302 22.445 2.48288 22.405 2.50009C22.3716 2.47229 19.4134 0.146987 19.4134 0.146987C19.2891 0.0503197 19.1543 0 18.9967 0C18.8391 0 18.7069 0.0503197 18.584 0.146987H18.588ZM4.57288 9.71568C4.61161 9.7501 12.4792 16.1976 12.5474 16.2533C12.4859 16.3076 11.4776 17.2411 11.4375 17.2782C11.3895 17.2491 1.45841 11.5643 1.33954 11.4981C1.45707 11.4318 4.52613 9.74084 4.57288 9.71568ZM9.55977 5.54179C9.58915 5.58814 14.755 14.316 14.7977 14.3875C14.7256 14.4206 13.4529 14.9555 13.4061 14.9767C13.3687 14.9344 5.99656 6.22375 5.90975 6.12047C6.03929 6.09928 9.51035 5.54841 9.55977 5.54179ZM12.0545 2.61795C12.1868 2.64311 15.6365 3.30256 15.6885 3.31183C15.6966 3.36347 17.5436 13.3188 17.557 13.4036C17.4742 13.4089 16.0999 13.4777 16.0425 13.4791C16.0211 13.4314 12.1013 2.74375 12.0532 2.61795H12.0545ZM19.0421 1.40895C19.1543 1.47781 22.1699 3.26681 22.2153 3.29594C22.2046 3.34758 20.5045 13.3241 20.4911 13.4128C20.4097 13.389 19.0915 12.9891 19.0421 12.9732V1.40895ZM12.0959 17.935C12.1133 17.8185 12.2081 17.6556 12.3016 17.5841C12.3016 17.5841 12.908 17.1021 12.9534 17.0663C13.0014 17.1047 17.1029 20.4841 17.4274 20.7516C17.0321 20.6059 12.0292 18.7719 11.9704 18.752C11.9798 18.6964 12.0973 17.9337 12.0973 17.9337L12.0959 17.935ZM13.7934 15.8176C13.8522 15.7143 13.9964 15.5938 14.1073 15.5567C14.1073 15.5567 14.8418 15.3104 14.8992 15.2906C14.93 15.3435 17.6171 19.9107 17.8307 20.2749C17.5089 20.0008 13.4422 16.5856 13.3941 16.5459C13.4235 16.4929 13.7934 15.8189 13.7934 15.8189V15.8176ZM16.1199 14.4034C16.2107 14.3279 16.3857 14.263 16.5046 14.2643C16.5046 14.2643 17.2805 14.2829 17.3406 14.2855C17.3513 14.3438 18.3022 19.5466 18.3783 19.9571C18.17 19.5942 15.5243 15.0032 15.4949 14.9489C15.5363 14.9118 16.1199 14.4034 16.1199 14.4034ZM18.7963 13.8631C18.9072 13.822 19.0942 13.822 19.205 13.8657C19.205 13.8657 19.9275 14.1451 19.9836 14.165C19.9729 14.2272 19.0728 19.438 18.9993 19.8498C18.9286 19.438 18.0244 14.2272 18.0164 14.165C18.0711 14.1438 18.7963 13.8618 18.7963 13.8618V13.8631ZM21.4968 14.2656C21.6157 14.263 21.7893 14.3292 21.8788 14.4047C21.8788 14.4047 22.4624 14.9145 22.5078 14.9502C22.4784 15.0045 19.8327 19.5956 19.6244 19.9584C19.6978 19.5479 20.6487 14.3451 20.6607 14.2868C20.7182 14.2842 21.4968 14.2656 21.4968 14.2656ZM26.0202 2.64708C26.1044 2.74904 28.3187 5.45307 28.3534 5.49412C28.3281 5.54046 23.2877 14.3398 23.2423 14.4139C23.1782 14.3663 22.0764 13.5453 22.0323 13.5122C22.0524 13.4579 25.9735 2.77553 26.0202 2.64708ZM23.1008 15.2919C23.1569 15.3131 23.8941 15.5581 23.8941 15.5581C24.0076 15.5951 24.1505 15.7156 24.2066 15.8189C24.2066 15.8189 24.5779 16.4929 24.6059 16.5459C24.5618 16.587 20.4911 20.0008 20.1693 20.2749C20.3843 19.9107 23.07 15.3435 23.1008 15.2906V15.2919ZM32.1557 6.17476C32.1971 6.29658 33.347 9.5912 33.3617 9.64152C33.3243 9.67727 25.5528 16.2347 25.486 16.2903C25.442 16.2202 24.6901 15.076 24.6593 15.0323C24.6954 14.986 32.0676 6.27937 32.157 6.17476H32.1557ZM25.0493 17.069C25.0961 17.1047 25.7024 17.5867 25.7024 17.5867C25.7945 17.6582 25.888 17.8211 25.9067 17.9377C25.9067 17.9377 26.0243 18.6991 26.0323 18.756C25.9762 18.7759 20.9733 20.6099 20.5779 20.7556C20.9011 20.4881 25.0026 17.1087 25.0506 17.0703L25.0493 17.069ZM36.7032 11.5682C36.7005 11.698 36.6418 15.1833 36.6418 15.235C36.5937 15.2522 27.0272 18.7825 26.9471 18.8156C26.9271 18.7348 26.6172 17.4027 26.6052 17.3484C26.6546 17.3232 36.5857 11.6344 36.7045 11.5682H36.7032ZM17.5022 22.5154C17.1723 22.7856 14.568 24.8857 14.5079 24.9334C14.3824 24.7639 14.2929 24.6368 14.1674 24.4223C14.0432 24.2091 13.9777 24.0674 13.8922 23.878C13.963 23.8502 17.1029 22.6637 17.5022 22.5141V22.5154ZM17.8882 22.9709C17.6705 23.3338 15.9476 26.1954 15.9089 26.2603C15.7313 26.1437 15.6031 26.0537 15.4134 25.8988C15.2238 25.7399 15.1116 25.6299 14.9687 25.4777C15.0261 25.4273 17.5676 23.2504 17.8882 22.9709ZM18.4104 23.2715C18.3289 23.686 17.6972 26.9568 17.6825 27.031C17.4795 26.982 17.3259 26.9409 17.0922 26.8575C16.8585 26.7741 16.7142 26.7052 16.5286 26.6112C16.566 26.5463 18.202 23.6423 18.4104 23.2715ZM19.0007 23.3735C19.0701 23.7893 19.6043 27.076 19.615 27.1554C19.408 27.1779 19.2504 27.1952 19.0007 27.1952C18.7509 27.1952 18.596 27.1779 18.3877 27.1554C18.401 27.0773 18.9352 23.7906 19.0007 23.3735ZM19.5936 23.2715C19.802 23.6423 21.438 26.5463 21.4741 26.6112C21.2871 26.7052 21.1442 26.7741 20.9105 26.8575C20.6781 26.9409 20.5259 26.982 20.3188 27.031C20.3055 26.9568 19.6751 23.686 19.5923 23.2715H19.5936ZM20.1145 22.9723C20.4377 23.249 22.9779 25.4273 23.0353 25.4763C22.8924 25.6286 22.7802 25.7385 22.5893 25.8974C22.3983 26.0563 22.2687 26.1464 22.0964 26.2589C22.0577 26.1941 20.3349 23.3325 20.1145 22.9709V22.9723ZM20.5018 22.5154C20.9011 22.6651 24.0396 23.8502 24.1078 23.8793C24.029 24.0687 23.9622 24.213 23.8366 24.4236C23.7124 24.6394 23.6203 24.7652 23.4961 24.9347C23.4373 24.8871 20.833 22.7856 20.5018 22.5167V22.5154Z" fill="#ED1C24"/>
<path d="M3.98246 32.9909C3.50433 32.8068 3.35208 32.6651 3.35208 32.3989C3.35208 32.1765 3.53104 31.9527 3.93037 31.9527C4.26292 31.9527 4.47527 32.0652 4.52869 32.0997L4.57944 32.1328L4.59547 32.0758L4.71433 31.7315L4.72768 31.6984L4.69563 31.6786C4.61016 31.6282 4.36442 31.5117 3.9464 31.5117C3.28798 31.5117 2.82989 31.8971 2.82989 32.4479C2.82989 32.8862 3.12638 33.204 3.73405 33.4239C4.16676 33.5828 4.32702 33.7496 4.32702 34.029C4.32702 34.3468 4.07995 34.5468 3.67929 34.5468C3.42019 34.5468 3.14908 34.4726 2.94341 34.3402L2.89266 34.3071L2.8753 34.3614L2.76311 34.7176L2.74976 34.7494L2.78047 34.7679C2.97413 34.8964 3.34006 34.993 3.65124 34.993C4.5367 34.993 4.85055 34.4567 4.85055 33.9946C4.85055 33.5325 4.5968 33.2305 3.98246 32.9895V32.9909Z" fill="#ED1C24"/>
<path d="M7.13576 31.5117H6.59888V34.993H7.13576V31.5117Z" fill="#ED1C24"/>
<path d="M11.2719 31.5117H11.2265V32.9816C11.2265 33.4067 11.2372 33.784 11.2666 34.184C11.133 33.9151 10.9727 33.6251 10.7364 33.2504L9.64656 31.5329L9.63053 31.513H9.07495V34.9944H9.58246V33.4993C9.58246 32.9988 9.57711 32.636 9.56109 32.2784C9.69731 32.5565 9.87494 32.8704 10.1167 33.2504L11.2025 34.9705L11.2158 34.9944H11.734V31.513H11.2719V31.5117Z" fill="#ED1C24"/>
<path d="M15.0182 31.5186C13.9591 31.5186 13.2419 32.2297 13.2419 33.2877C13.2419 34.3457 13.9017 35.0012 14.922 35.0012C15.3521 35.0012 15.6726 34.9138 15.8142 34.8383L15.8462 34.8224L15.8396 34.7867L15.7541 34.4464L15.7407 34.3921L15.69 34.4172C15.5204 34.4993 15.2586 34.551 15.0089 34.551C14.2423 34.551 13.7868 34.0729 13.7868 33.2744C13.7868 32.476 14.261 31.9635 15.0329 31.9635C15.3601 31.9635 15.5765 32.0482 15.674 32.0986L15.7234 32.1211L15.7407 32.0707L15.8462 31.7225L15.8609 31.6894L15.8262 31.6695C15.7581 31.6364 15.4963 31.5212 15.0182 31.5212V31.5186Z" fill="#ED1C24"/>
<path d="M17.9871 34.5349V33.4H19.2665H19.3133V33.3563V32.9961V32.9498H19.2665H17.9871V31.9686H19.348H19.3921V31.9235V31.5581V31.5117H19.348H17.4969H17.4502V31.5581V34.948V34.9944H17.4969H19.4241H19.4695V34.948V34.5812V34.5349H19.4241H17.9871Z" fill="#ED1C24"/>
<path d="M23.5908 31.5117H23.5814L23.5708 31.5157L22.8723 31.8878L22.8416 31.9037L22.8496 31.9381L22.9337 32.2639L22.9471 32.3221L22.9991 32.2943L23.4973 32.0242V34.948V34.9944H23.5427H23.9594H24.0048V34.948V31.5581V31.5117H23.9594H23.5908Z" fill="#ED1C24"/>
<path d="M27.3652 33.1365C27.8086 32.9061 27.8794 32.5592 27.8794 32.3645C27.8794 31.9514 27.5602 31.5117 26.867 31.5117H26.8617C26.242 31.5117 25.7933 31.8971 25.7933 32.4307C25.7933 32.7393 25.9789 33.0054 26.2928 33.1709C25.8961 33.3616 25.6704 33.6755 25.6704 34.0621C25.6704 34.5998 26.1552 34.993 26.8256 34.993C27.4961 34.993 27.9956 34.572 27.9956 33.992C27.9956 33.6159 27.7685 33.3153 27.3625 33.1352L27.3652 33.1365ZM26.8524 31.9196H26.859C27.2343 31.9196 27.3665 32.1712 27.3665 32.4082C27.3665 32.6452 27.1983 32.8531 26.9058 32.9551C26.5051 32.8478 26.3181 32.673 26.3235 32.4003C26.3235 32.1606 26.4878 31.9209 26.8524 31.9209V31.9196ZM26.8443 34.5812H26.8377C26.652 34.5812 26.4864 34.515 26.3729 34.3958C26.2727 34.2925 26.2193 34.1535 26.2273 34.0052C26.2273 33.7046 26.4303 33.4715 26.7776 33.3696C27.2557 33.506 27.4587 33.7072 27.4587 34.0383C27.4587 34.3693 27.2103 34.5799 26.843 34.5799L26.8443 34.5812Z" fill="#ED1C24"/>
<path d="M30.4503 31.5117C29.7892 31.5117 29.271 32.0401 29.271 32.7128C29.271 33.3272 29.701 33.7682 30.2927 33.7682C30.5745 33.7682 30.8149 33.6741 31.0045 33.5033C30.9364 33.7933 30.8149 34.0383 30.6226 34.2104C30.4463 34.3813 30.2179 34.4899 29.9575 34.5177C29.8159 34.5336 29.7037 34.5415 29.6022 34.5375L29.5555 34.5349V34.9917H29.5982C29.701 34.9944 29.8506 34.9851 30.0189 34.9652C30.3888 34.9242 30.7468 34.7613 31.0045 34.511C31.273 34.2568 31.5882 33.7695 31.5882 32.9366C31.5882 32.056 31.1528 31.5117 30.4489 31.5117H30.4503ZM31.0165 33.024C30.8897 33.2213 30.66 33.3431 30.4009 33.3431C30.0469 33.3431 29.8106 33.0809 29.8106 32.6916C29.8106 32.2546 30.0643 31.9408 30.4115 31.9408H30.4156C30.5745 31.9408 30.7067 31.9924 30.8082 32.0944C30.9658 32.2506 31.0513 32.5314 31.0473 32.8849C31.0473 32.9379 31.0366 32.9803 31.0165 33.0253V33.024Z" fill="#ED1C24"/>
<path d="M35.1339 31.5117H32.977H32.9316V31.5581V31.9381V31.9818H32.977H34.581L33.1306 34.9268L33.0986 34.9944H33.172H33.6462H33.6729L33.6862 34.9679L35.174 31.8785L35.1807 31.8706V31.86V31.5581V31.5117H35.1339Z" fill="#ED1C24"/>
</g>
<defs>
<clipPath id="clip0_104_248">
<rect width="38" height="35" fill="white"/>
</clipPath>
</defs>
</svg>
